<?xml version="1.0" encoding="UTF-8"?>
<svg xmlns="http://www.w3.org/2000/svg" xmlns:xlink="http://www.w3.org/1999/xlink" width="283px" height="150px" viewBox="0 0 125 67" version="1.1">
<defs>
<linearGradient id="linear0" gradientUnits="userSpaceOnUse" x1="-247.216293" y1="782.045288" x2="-222.944397" y2="774.233704" gradientTransform="matrix(0.747608,0,0,0.751909,219.796655,-574.367075)">
<stop offset="0" style="stop-color:rgb(99.607843%,86.27451%,0%);stop-opacity:1;"/>
<stop offset="0.3019" style="stop-color:rgb(98.431373%,75.294118%,8.627451%);stop-opacity:1;"/>
<stop offset="0.5925" style="stop-color:rgb(97.647059%,66.27451%,11.372549%);stop-opacity:1;"/>
<stop offset="0.8351" style="stop-color:rgb(97.254902%,60.784314%,12.54902%);stop-opacity:1;"/>
<stop offset="1" style="stop-color:rgb(97.254902%,58.823529%,12.54902%);stop-opacity:1;"/>
</linearGradient>
<radialGradient id="radial0" gradientUnits="userSpaceOnUse" cx="-255.460205" cy="781.710876" fx="-255.460205" fy="781.710876" r="57.189999" gradientTransform="matrix(0.747608,0,0,0.751909,219.796655,-574.367075)">
<stop offset="0" style="stop-color:rgb(16.078431%,67.058824%,88.627451%);stop-opacity:1;"/>
<stop offset="0.2297" style="stop-color:rgb(16.078431%,66.27451%,88.235294%);stop-opacity:1;"/>
<stop offset="0.3923" style="stop-color:rgb(14.509804%,63.921569%,86.666667%);stop-opacity:1;"/>
<stop offset="0.5341" style="stop-color:rgb(12.54902%,60%,83.921569%);stop-opacity:1;"/>
<stop offset="0.6642" style="stop-color:rgb(10.196078%,54.901961%,80%);stop-opacity:1;"/>
<stop offset="0.785" style="stop-color:rgb(7.45098%,48.627451%,75.686275%);stop-opacity:1;"/>
<stop offset="0.8504" style="stop-color:rgb(4.705882%,44.705882%,72.941176%);stop-opacity:1;"/>
<stop offset="1" style="stop-color:rgb(3.921569%,40.392157%,69.803922%);stop-opacity:1;"/>
</radialGradient>
<radialGradient id="radial1" gradientUnits="userSpaceOnUse" cx="-255.461105" cy="781.710388" fx="-255.461105" fy="781.710388" r="57.188" gradientTransform="matrix(0.747608,0,0,0.751909,219.796655,-574.367075)">
<stop offset="0" style="stop-color:rgb(16.078431%,67.058824%,88.627451%);stop-opacity:1;"/>
<stop offset="0.2297" style="stop-color:rgb(16.078431%,66.27451%,88.235294%);stop-opacity:1;"/>
<stop offset="0.3923" style="stop-color:rgb(14.509804%,63.921569%,86.666667%);stop-opacity:1;"/>
<stop offset="0.5341" style="stop-color:rgb(12.54902%,60%,83.921569%);stop-opacity:1;"/>
<stop offset="0.6642" style="stop-color:rgb(10.196078%,54.901961%,80%);stop-opacity:1;"/>
<stop offset="0.785" style="stop-color:rgb(7.45098%,48.627451%,75.686275%);stop-opacity:1;"/>
<stop offset="0.8504" style="stop-color:rgb(4.705882%,44.705882%,72.941176%);stop-opacity:1;"/>
<stop offset="1" style="stop-color:rgb(3.921569%,40.392157%,69.803922%);stop-opacity:1;"/>
</radialGradient>
<radialGradient id="radial2" gradientUnits="userSpaceOnUse" cx="-255.459198" cy="781.710388" fx="-255.459198" fy="781.710388" r="57.185799" gradientTransform="matrix(0.747608,0,0,0.751909,219.796655,-574.367075)">
<stop offset="0" style="stop-color:rgb(16.078431%,67.058824%,88.627451%);stop-opacity:1;"/>
<stop offset="0.2297" style="stop-color:rgb(16.078431%,66.27451%,88.235294%);stop-opacity:1;"/>
<stop offset="0.3923" style="stop-color:rgb(14.509804%,63.921569%,86.666667%);stop-opacity:1;"/>
<stop offset="0.5341" style="stop-color:rgb(12.54902%,60%,83.921569%);stop-opacity:1;"/>
<stop offset="0.6642" style="stop-color:rgb(10.196078%,54.901961%,80%);stop-opacity:1;"/>
<stop offset="0.785" style="stop-color:rgb(7.45098%,48.627451%,75.686275%);stop-opacity:1;"/>
<stop offset="0.8504" style="stop-color:rgb(4.705882%,44.705882%,72.941176%);stop-opacity:1;"/>
<stop offset="1" style="stop-color:rgb(3.921569%,40.392157%,69.803922%);stop-opacity:1;"/>
</radialGradient>
<filter id="alpha" filterUnits="objectBoundingBox" x="0%" y="0%" width="100%" height="100%">
  <feColorMatrix type="matrix" in="SourceGraphic" values="0 0 0 0 1 0 0 0 0 1 0 0 0 0 1 0 0 0 1 0"/>
</filter>
<mask id="mask0">
  <g filter="url(#alpha)">
<rect x="0" y="0" width="125" height="67" style="fill:rgb(0%,0%,0%);fill-opacity:0.698039;stroke:none;"/>
  </g>
</mask>
<clipPath id="clip1">
  <rect x="0" y="0" width="125" height="67"/>
</clipPath>
<g id="surface5" clip-path="url(#clip1)">
<path style=" stroke:none;fill-rule:nonzero;fill:rgb(10.196079%,29.019609%,61.176473%);fill-opacity:1;" d="M 36.332031 41.132812 L 30.726562 48.953125 L 30.128906 52.261719 L 37.230469 42.859375 C 40.371094 42.335938 44.109375 41.132812 47.472656 39.175781 L 46.351562 37.597656 C 42.988281 39.476562 39.546875 40.679688 36.332031 41.132812 Z M 36.332031 41.132812 "/>
</g>
<mask id="mask1">
  <g filter="url(#alpha)">
<rect x="0" y="0" width="125" height="67" style="fill:rgb(0%,0%,0%);fill-opacity:0.698039;stroke:none;"/>
  </g>
</mask>
<clipPath id="clip2">
  <rect x="0" y="0" width="125" height="67"/>
</clipPath>
<g id="surface8" clip-path="url(#clip2)">
<path style=" stroke:none;fill-rule:nonzero;fill:rgb(10.196079%,29.019609%,61.176473%);fill-opacity:1;" d="M 29.828125 42.710938 L 30.054688 40.980469 C 27.214844 40.378906 24.820312 39.101562 23.175781 37.070312 C 23.101562 36.996094 23.027344 36.847656 22.953125 36.769531 L 22.054688 37.296875 C 22.203125 37.597656 22.429688 37.898438 22.652344 38.199219 C 24.222656 40.53125 26.765625 42.035156 29.828125 42.710938 Z M 29.828125 42.710938 "/>
</g>
<mask id="mask2">
  <g filter="url(#alpha)">
<rect x="0" y="0" width="125" height="67" style="fill:rgb(0%,0%,0%);fill-opacity:0.698039;stroke:none;"/>
  </g>
</mask>
<clipPath id="clip3">
  <rect x="0" y="0" width="125" height="67"/>
</clipPath>
<g id="surface11" clip-path="url(#clip3)">
<path style=" stroke:none;fill-rule:nonzero;fill:rgb(10.196079%,29.019609%,61.176473%);fill-opacity:1;" d="M 22.351562 26.242188 C 20.707031 29.703125 20.335938 33.238281 21.457031 36.246094 L 22.203125 35.792969 C 20.785156 33.011719 20.933594 29.628906 22.351562 26.242188 Z M 22.351562 26.242188 "/>
</g>
</defs>
<g id="surface1">
<path style=" stroke:none;fill-rule:nonzero;fill:rgb(100%,100%,100%);fill-opacity:1;" d="M 67.582031 7.597656 C 76.480469 13.460938 71.320312 39.855469 53.230469 51.207031 C 35.136719 62.484375 14.726562 65.871094 7.476562 53.238281 C 0.148438 40.605469 7.851562 20.378906 25.867188 9.101562 C 43.960938 -2.253906 61.003906 3.234375 67.582031 7.597656 Z M 67.582031 7.597656 "/>
<path style=" stroke:none;fill-rule:nonzero;fill:url(#linear0);" d="M 55.621094 15.039062 C 53.378906 13.3125 50.390625 12.332031 47.25 12.332031 L 48.820312 4.0625 L 42.390625 12.558594 C 38.726562 13.085938 34.839844 14.4375 31.398438 16.46875 L 26.765625 9.925781 C 28.78125 8.648438 30.875 7.371094 33.195312 6.394531 C 47.398438 0.453125 58.238281 1.882812 67.660156 7.597656 Z M 55.621094 15.039062 "/>
<path style=" stroke:none;fill-rule:nonzero;fill:url(#radial0);" d="M 31.398438 16.46875 L 26.765625 9.925781 C 20.933594 13.6875 15.847656 18.5 12.410156 23.914062 L 16.148438 25.640625 L 10.316406 27.746094 C 7.773438 33.085938 6.878906 38.800781 8.296875 44.441406 L 22.351562 35.792969 C 19.214844 30.078125 22.953125 21.65625 31.398438 16.46875 Z M 31.398438 16.46875 "/>
<path style=" stroke:none;fill-rule:nonzero;fill:url(#radial1);" d="M 28.558594 56.921875 C 36.035156 56.621094 44.707031 53.613281 53.304688 47.222656 L 46.425781 37.597656 C 42.988281 39.476562 39.546875 40.679688 36.332031 41.132812 L 28.558594 51.960938 L 29.980469 40.980469 C 27.136719 40.378906 24.746094 39.101562 23.101562 37.070312 C 23.027344 36.996094 22.953125 36.847656 22.875 36.769531 L 8.523438 45.644531 C 10.464844 51.808594 16.222656 55.871094 23.773438 56.773438 L 28.109375 53.164062 Z M 28.558594 56.921875 "/>
<path style=" stroke:none;fill-rule:nonzero;fill:url(#radial2);" d="M 63.246094 42.183594 L 62.199219 42.183594 C 37.753906 67.296875 10.988281 61.28125 6.652344 45.945312 C 1.867188 29.25 18.617188 10.679688 35.886719 4.4375 C 20.109375 7.671875 -4.410156 30.003906 3.289062 51.582031 C 8.597656 66.472656 34.765625 70.832031 57.339844 53.011719 L 55.621094 50.605469 C 59.507812 47.296875 62.199219 44.214844 63.246094 42.183594 Z M 63.246094 42.183594 "/>
<use xlink:href="#surface5" mask="url(#mask0)"/>
<use xlink:href="#surface8" mask="url(#mask1)"/>
<use xlink:href="#surface11" mask="url(#mask2)"/>
<path style=" stroke:none;fill-rule:nonzero;fill:rgb(8.627451%,28.627452%,54.509807%);fill-opacity:1;" d="M 122.980469 21.734375 C 122.160156 18.648438 119.765625 17.445312 116.402344 17.523438 C 115.582031 17.523438 114.609375 17.671875 113.5625 17.898438 L 116.550781 10.078125 L 110.796875 10.078125 L 101.152344 35.34375 L 101.078125 35.492188 L 105.113281 35.492188 L 106.757812 34.289062 C 106.757812 34.289062 107.65625 35.417969 109.597656 35.71875 C 114.609375 36.394531 118.792969 33.386719 121.039062 29.929688 C 122.683594 27.523438 123.65625 24.0625 122.980469 21.734375 Z M 115.953125 29.402344 C 114.757812 31.054688 113.1875 32.335938 111.46875 32.335938 C 109.972656 32.335938 108.550781 31.507812 109.449219 28.726562 C 110.347656 25.867188 112.214844 21.507812 112.214844 21.507812 C 116.625 19.703125 118.046875 22.035156 117.972656 23.761719 C 117.972656 24.890625 117.375 27.371094 115.953125 29.402344 Z M 115.953125 29.402344 "/>
<path style=" stroke:none;fill-rule:nonzero;fill:rgb(8.627451%,28.627452%,54.509807%);fill-opacity:1;" d="M 41.867188 17.523438 C 38.054688 17.898438 35.0625 19.027344 32.074219 21.734375 C 29.753906 23.839844 28.257812 27.222656 28.183594 29.851562 C 28.109375 33.3125 30.652344 36.394531 35.808594 35.566406 C 37.15625 35.34375 38.949219 34.214844 38.949219 34.214844 L 39.773438 35.417969 L 43.808594 35.417969 L 50.164062 18.800781 C 48.742188 18.273438 45.753906 17.144531 41.867188 17.523438 Z M 43.660156 20.980469 C 43.660156 20.980469 41.867188 25.941406 40.519531 28.800781 C 39.25 31.582031 37.457031 32.484375 36.035156 32.410156 C 34.464844 32.335938 33.566406 31.207031 33.566406 29.476562 C 33.640625 27.296875 34.914062 24.964844 35.886719 23.839844 C 36.78125 22.785156 39.324219 20.378906 43.660156 20.980469 Z M 43.660156 20.980469 "/>
<path style=" stroke:none;fill-rule:nonzero;fill:rgb(8.627451%,28.627452%,54.509807%);fill-opacity:1;" d="M 70.722656 33.160156 L 76.480469 17.972656 L 82.160156 17.972656 L 76.78125 32.183594 C 78.425781 33.011719 81.414062 32.558594 82.761719 29.628906 L 87.171875 17.972656 L 92.925781 17.972656 L 87.46875 32.257812 C 89.714844 33.011719 92.179688 32.636719 93.375 29.628906 L 97.785156 17.972656 L 103.46875 17.972656 L 98.910156 29.777344 C 97.785156 32.410156 95.917969 36.019531 89.5625 36.019531 C 87.46875 36.019531 85.527344 35.265625 84.253906 34.289062 C 82.835938 35.117188 79.917969 36.019531 77.75 36.019531 C 75.582031 36.019531 71.695312 35.265625 70.722656 33.160156 Z M 70.722656 33.160156 "/>
<path style=" stroke:none;fill-rule:nonzero;fill:rgb(8.627451%,28.627452%,54.509807%);fill-opacity:1;" d="M 54.351562 18.800781 L 47.996094 35.492188 L 53.828125 35.492188 L 59.210938 21.433594 C 59.957031 21.207031 61.15625 21.054688 62.050781 21.054688 C 63.921875 21.054688 64.742188 21.808594 64.59375 22.710938 C 64.59375 22.9375 64.519531 23.160156 64.367188 23.386719 L 59.808594 35.417969 L 65.640625 35.417969 L 70.125 23.613281 C 70.273438 23.160156 70.425781 22.710938 70.5 22.257812 C 70.796875 19.703125 69.003906 17.445312 63.398438 17.445312 C 61.601562 17.445312 60.109375 17.597656 59.0625 17.671875 C 58.238281 17.972656 56.59375 18.199219 54.351562 18.800781 Z M 54.351562 18.800781 "/>
<path style=" stroke:none;fill-rule:nonzero;fill:rgb(90.196079%,45.490196%,14.117648%);fill-opacity:1;" d="M 48.144531 7.523438 L 47.25 12.332031 C 47.699219 12.332031 48.144531 12.332031 48.59375 12.410156 L 49.941406 4.363281 Z M 48.144531 7.523438 "/>
<path style=" stroke:none;fill-rule:nonzero;fill:rgb(100%,100%,100%);fill-opacity:1;" d="M 48.59375 5.117188 L 48.820312 4.0625 L 42.390625 12.558594 C 42.914062 12.484375 43.285156 12.410156 43.808594 12.410156 Z M 48.59375 5.117188 "/>
<path style=" stroke:none;fill-rule:nonzero;fill:rgb(100%,100%,100%);fill-opacity:1;" d="M 31.25 41.207031 C 30.652344 41.132812 30.578125 41.132812 30.054688 40.980469 L 28.632812 51.960938 L 29.230469 51.132812 Z M 31.25 41.207031 "/>
</g>
</svg>
